<svg xmlns="http://www.w3.org/2000/svg" version="1.1" xmlns:xlink="http://www.w3.org/1999/xlink" xmlns:svgjs="http://svgjs.dev/svgjs" width="1440" height="560" preserveAspectRatio="none" viewBox="0 0 1440 560"><g mask="url(&quot;#SvgjsMask1010&quot;)" fill="none"><rect width="1440" height="560" x="0" y="0" fill="#1e3266"></rect><path d="M1488 560L0 560 L0 405.83Q20 353.83, 72 373.84Q70.91 300.75, 144 299.66Q195.09 230.75, 264 281.85Q361 258.86, 384 355.86Q432.54 332.4, 456 380.94Q497.35 350.29, 528 391.65Q529.2 320.85, 600 322.04Q625.05 275.09, 672 300.13Q761.61 269.74, 792 359.35Q858.38 305.73, 912 372.1Q940.73 280.83, 1032 309.55Q1074.11 279.66, 1104 321.77Q1192.52 290.29, 1224 378.81Q1225.37 308.18, 1296 309.54Q1361.05 254.59, 1416 319.63Q1433.71 265.34, 1488 283.05z" fill="rgba(255, 255, 255, 1)"></path><path d="M1536 560L0 560 L0 444.65Q10.59 383.24, 72 393.82Q115.34 365.16, 144 408.51Q246.26 390.77, 264 493.04Q315.64 424.68, 384 476.32Q434.66 406.98, 504 457.64Q500.05 381.69, 576 377.73Q624.27 354, 648 402.28Q721.07 355.35, 768 428.41Q820.57 360.98, 888 413.54Q937.77 391.31, 960 441.08Q1018.16 427.25, 1032 485.41Q1060.35 441.76, 1104 470.11Q1113.36 407.47, 1176 416.83Q1243.91 364.74, 1296 432.65Q1332.86 349.5, 1416 386.36Q1490.7 341.06, 1536 415.76z" fill="rgba(53, 108, 177, 1)"></path><path d="M1536 560L0 560 L0 530.16Q60.6 518.76, 72 579.36Q125.33 512.69, 192 566.03Q214.3 468.33, 312 490.62Q363.01 421.63, 432 472.65Q527.29 447.94, 552 543.22Q628.08 499.3, 672 575.37Q706.57 489.94, 792 524.52Q833.44 445.96, 912 487.4Q940.63 444.03, 984 472.67Q1064 432.67, 1104 512.67Q1157.61 494.28, 1176 547.89Q1230.55 482.44, 1296 537Q1377.38 498.38, 1416 579.77Q1437.66 481.43, 1536 503.09z" fill="rgba(24, 47, 93, 1)"></path></g><defs><mask id="SvgjsMask1010"><rect width="1440" height="560" fill="#ffffff"></rect></mask></defs></svg>