<svg xmlns="http://www.w3.org/2000/svg" version="1.1" xmlns:xlink="http://www.w3.org/1999/xlink" xmlns:svgjs="http://svgjs.dev/svgjs" width="1440" height="560" preserveAspectRatio="none" viewBox="0 0 1440 560"><g mask="url(&quot;#SvgjsMask1014&quot;)" fill="none"><rect width="1440" height="560" x="0" y="0" fill="#0e2a47"></rect><circle r="6.425" cx="691.775" cy="319.915" filter="url(#SvgjsFilter1015)" fill="rgba(202, 235, 219, 1)"></circle><circle r="7.525" cx="600.5649999999999" cy="316.04499999999996" filter="url(#SvgjsFilter1015)" fill="rgba(230, 218, 214, 1)"></circle><circle r="6.06" cx="431.06" cy="398.15" filter="url(#SvgjsFilter1015)" fill="rgba(202, 235, 219, 1)"></circle><circle r="6.485" cx="1301.885" cy="80.665" filter="url(#SvgjsFilter1015)" fill="rgba(202, 235, 219, 1)"></circle><circle r="6.33" cx="164.4" cy="124.23" filter="url(#SvgjsFilter1015)" fill="rgba(230, 218, 214, 1)"></circle><circle r="5.525" cx="188.54500000000002" cy="355.005" filter="url(#SvgjsFilter1015)" fill="rgba(230, 218, 214, 1)"></circle><circle r="6.47" cx="1218.04" cy="184.22" filter="url(#SvgjsFilter1015)" fill="rgba(230, 218, 214, 1)"></circle><circle r="5.07" cx="1184.8999999999999" cy="453.5" filter="url(#SvgjsFilter1015)" fill="rgba(202, 235, 219, 1)"></circle><circle r="4.9" cx="1425.17" cy="504.73999999999995" filter="url(#SvgjsFilter1015)" fill="rgba(202, 235, 219, 1)"></circle><circle r="5.74" cx="357.72" cy="482.85" filter="url(#SvgjsFilter1015)" fill="rgba(230, 218, 214, 1)"></circle><circle r="7.67" cx="744.11" cy="68.19" filter="url(#SvgjsFilter1015)" fill="rgba(244, 245, 246, 1)"></circle><circle r="5.285" cx="488.07500000000005" cy="471.285" filter="url(#SvgjsFilter1015)" fill="rgba(202, 235, 219, 1)"></circle><circle r="5.11" cx="6.11" cy="33.64" filter="url(#SvgjsFilter1015)" fill="rgba(230, 218, 214, 1)"></circle><circle r="8.61" cx="78.38" cy="224.02999999999997" filter="url(#SvgjsFilter1015)" fill="rgba(202, 235, 219, 1)"></circle><circle r="7.19" cx="281.21999999999997" cy="269.21" filter="url(#SvgjsFilter1015)" fill="rgba(202, 235, 219, 1)"></circle><circle r="7.67" cx="187.51" cy="102.82000000000001" filter="url(#SvgjsFilter1015)" fill="rgba(202, 235, 219, 1)"></circle><circle r="4.785" cx="722.125" cy="187.935" filter="url(#SvgjsFilter1015)" fill="rgba(202, 235, 219, 1)"></circle><circle r="6.64" cx="758.59" cy="553.03" filter="url(#SvgjsFilter1015)" fill="rgba(224, 202, 235, 1)"></circle><circle r="6.345" cx="359.285" cy="237.085" filter="url(#SvgjsFilter1015)" fill="rgba(244, 245, 246, 1)"></circle><circle r="6.455" cx="1362.8049999999998" cy="313.635" filter="url(#SvgjsFilter1015)" fill="rgba(224, 202, 235, 1)"></circle><path d="M968.4 81.3L975.4 127.1 968.2 137.6 939.8 134.7 934.2 122.8 951.1 79.6C951.2 79 951.2 79 951.2 78.4 951.3 77.3 950.9 76.2 949.3 75.4 947.6 75.3 946.4 75.7 945.7 77.3L931.1 115.2 922.8 96.9 929.1 80.1C929.1 80.1 929.1 79.5 929.1 79.5 929.3 78.4 928.8 77.2 927.2 76.5 926.1 75.8 924.4 76.8 923.6 78.4L919.1 89.2 913.2 75.6C912.8 74.5 911.2 73.7 909.4 74.1S907.5 76.7 907.9 78.4L913.8 91.5 903 87.5C901.4 86.8 899.6 87.7 898.8 89.3 898.7 90.5 899.1 92.2 900.7 92.9L917.5 99.2 925.7 118 887.8 103.4C886.2 102.7 884.4 103.6 883.7 104.7 883.6 106.3 884 108.1 885.6 108.8L928.9 125.1 934.4 137.5 918 160 904.6 158.6 875.1 122.9C874.1 121.7 872.4 121.5 871.2 122.5S869.8 125.2 870.8 126.4L896.8 157.8 876.2 155.7 865.2 142.2C864.2 140.9 862.6 140.7 860.8 141.7S859.4 144.4 860.4 145.6L868.4 154.9 853.4 153.3C851.7 153.1 850.4 154.7 850.2 156.4 850.1 158 851.1 159.3 852.7 159.4L867.8 161 858.6 168.5C856.8 169.4 856.6 171.1 858.1 172.4 859.1 173.6 860.8 173.8 862 172.8L875.6 161.8 896.2 163.9 864.3 189.3C863 190.3 862.8 192.6 863.8 193.8S866.5 195.2 867.7 194.2L904 164.7 917.3 166.1 928.7 192.1 920.9 202.5 875.1 209.6C873.4 210 872.7 211.6 872.5 213.3 872.9 215 874.5 215.7 876.2 215.9L916.2 209.4 904.4 225.6 886.7 228.3C885 228.6 884.2 230.3 884.1 231.9 884.5 233.1 886.1 234.4 887.8 234L899.2 232.4 890.6 244.4C890 245.5 890.4 247.2 891.4 248.5 893 249.2 894.7 248.8 895.4 247.7L903.9 235.7 906.1 247.7C906.5 248.9 908.1 250.2 909.2 249.7 910.9 249.9 911.6 248.9 911.8 247.2 911.8 247.2 911.8 246.6 911.8 246.6L909.1 228.9 921 212.7 927.5 252.8C927.9 254.5 928.9 255.7 930.6 255.3 932.3 255 933 253.9 933.1 252.8 933.2 252.2 933.2 252.2 933.2 252.2L925.6 205.8 933.5 195.4 961.9 198.3 966.8 210.1 950.5 254C949.8 255.1 950.7 256.9 951.8 257.5 953.4 258.3 955.2 257.3 955.9 255.7L970.5 217.8 978.8 236.1 972.5 252.9C971.8 254.5 972.2 256.3 973.9 256.4 975.5 257.2 977.3 256.2 977.9 255.2L981.9 243.8 987.8 257.3C988.8 258.6 990.4 259.3 992.2 258.9 992.8 258.4 993.5 257.4 993.6 256.2 993.6 255.7 993.6 255.7 993.1 255.1L987.2 241.5 998.6 245.5C1000.2 246.2 1001.5 245.2 1002.1 244.2 1002.2 243.6 1002.2 243.6 1002.3 243.1 1002.4 241.9 1001.9 240.8 1000.9 240.1L984.1 233.9 975.8 215.6 1013.7 230.2C1015.4 230.4 1017.1 230 1017.3 228.3 1017.9 227.8 1017.9 227.8 1018 227.2 1018.1 226.1 1017.1 224.9 1016 224.2L972.1 207.8 967.2 196.1 983.6 173 996.4 174.3 1025.9 210.6C1026.9 211.8 1029.1 212.1 1030.4 211.1S1031.8 207.8 1030.8 206.6L1004.8 175.2 1024.8 177.3 1036.4 190.9C1037.4 192.1 1039.1 192.3 1040.3 191.3 1041.5 190.3 1041.7 188.6 1040.7 187.4L1033.2 178.1 1048.2 179.7C1049.4 179.8 1051.1 178.9 1051.3 177.2 1051.5 175.5 1050 173.7 1048.9 173.6L1033.8 172 1043.1 164.5C1043.7 164 1044.3 163.5 1044.3 163 1044.5 161.9 1044 161.2 1043.5 160.6 1042.5 159.4 1040.8 159.2 1039.6 160.2L1025.5 171.2 1005.4 169.1 1037.3 143.7C1038 143.2 1038 142.6 1038.1 141.5 1038.2 140.9 1038.2 140.4 1037.7 139.8 1036.7 138.5 1034.5 138.3 1033.3 139.3L997.1 168.2 984.3 166.9 972.8 141.5 980.2 130.4 1026.5 123.4C1027.7 123 1028.9 122 1029 120.9 1029.1 120.3 1029.1 120.3 1028.5 120.2 1028.7 118.6 1027.1 117.3 1025.4 117.7L985.3 124.2 997.2 107.4 1014.9 104.8C1016.1 104.3 1016.8 103.3 1016.9 102.1 1016.9 102.1 1016.9 101.6 1016.9 101.6 1017.1 99.9 1015.6 98.6 1013.8 99L1001.8 101.1 1010.4 89.1C1011 88.6 1011 88 1011.1 87.5 1011.2 86.3 1010.8 85.2 1010.2 85.1 1008.6 83.8 1006.9 84.2 1005.7 85.2L997.1 97.3 995.5 85.8C995.1 84.1 993.5 82.8 991.8 83.2 990.6 83.7 989.4 85.2 989.8 86.4L992.5 104.1 980.6 120.3 974.1 80.3C973.7 78.5 972.1 77.8 970.4 77.6 969.3 78.1 968 79.6 968.4 81.3ZM942.5 141.2L964.2 143.4 967.5 143.8 968.9 146.7 977.6 166.2 978.9 169.7 976.9 172.3 964.5 189.6 962.5 192.2 959.2 191.9 937.4 189.6 934.1 189.3 932.7 186.3 924 166.8 922.6 163.9 924.7 160.7 937.2 143.4 939.1 140.8 942.5 141.2Z" fill="rgba(224, 202, 235, 1)"></path><path d="M716.3 137.2L708.7 155.8 700 145.4C699.2 144.2 697.2 143.9 695.4 144.8 694.3 146.3 694 148.3 694.8 149.4L705.9 163.3 698.8 180.5 676.5 152.2C674.9 150.5 672.9 150.1 671.8 151.6 670 152.5 669.7 154.5 671.2 156.2L696 187.4 689.9 203.2 651.3 209 641.8 197.5 657.9 158.2C657.8 157.5 657.7 156.9 657.6 156.3 657.6 155.6 656.7 154.5 656 153.9 653.9 152.9 652.1 153.9 651.8 155.9L637.1 191.7 625.8 177.2 632.8 158.7C633.4 158.6 633.3 158 633.2 157.3 633 156.1 632.2 154.9 630.8 154.5 629.5 154 627.7 154.9 626.6 156.4L621.1 171.4 606.8 153.5C605.9 152.3 603.9 152 602.1 152.9 601.1 154.4 600.7 156.4 601.5 157.5L615 174.3 601.7 176.3C599.8 176.5 598.9 178.6 599.1 179.9 599.3 181.8 600.9 183.5 602.8 183.2L619.9 180.7 631.1 195.2 595.7 200.5C593.8 200.8 592.7 202.2 593 204.1 593.2 206 594.7 207.1 596.6 206.8L635.8 200.9 646.1 213 631.4 249.5 616.9 251.7 591.4 219.9C590.5 218.1 587.9 217.8 586.8 219.3 585 220.2 585.3 222.1 586.2 223.9L609.3 252.8 590.9 255.5 579.7 241C578.9 239.9 576.3 239.6 575.1 240.4S573.7 243.9 574.6 245.7L583.3 256.7 561.2 260C559.3 260.3 558.3 262.3 558.6 264.2 558.8 265.5 560.3 267.2 562.2 266.9L584.4 263.6 579.3 277.3C578.9 278.7 579.1 280.6 581.2 281.6 582.6 282 585 281 585.5 279.6L592 262.5 610.3 259.8 596.7 294.1C596.3 296.1 596.6 298 598.7 299 600.1 299.5 602.5 298.5 603 297.1L617.9 258.6 632.5 256.4 657.1 287.1 650.9 301.6 611.6 307.4C609.7 307.7 608.6 309.2 608.9 311.1 609.2 313 610.8 314.7 612.7 314.4L648.1 309.1 641.6 326.3 624.5 328.8C622.6 329.1 621.5 330.6 621.8 332.5 622.1 334.4 623.6 335.4 625.5 335.1L638.8 333.2 630.7 353.1C630.3 354.5 631.3 356.9 632.7 357.4 634.7 357.7 636.6 357.4 636.9 355.4L645.5 334.7 655 346.9C656.5 348 658.5 348.3 659.7 347.5 660.8 346.7 661.3 345.3 661.1 344.1 661.1 344.1 661 343.4 660.3 342.9L648.2 327.2 654.7 310.1 679.3 340.1C680.2 341.9 682.2 342.2 683.9 340.7 684.4 339.9 685 339.2 684.8 337.9 684.7 337.3 684.6 336.7 684.5 336L657.6 303.2 663.3 289.4 701.9 283.6 712.3 296.9 697.8 334.1C696.8 336.1 697.7 338 699.7 338.3 701.2 339.4 703 338.5 703.9 336.4L717 302.7 728.9 317.1 722.3 333.6C721.9 335 722.8 336.8 724.2 337.9 726.2 338.2 728.1 337.9 728.5 335.9L733.7 323.5 746.4 339.1C747.3 340.9 749.2 340.6 751 339.7 751.6 339 752 337.6 751.8 336.3 751.8 336.3 751.7 335.7 751.6 335.1L738.1 318.3 754 316C755.2 315.8 756.9 314.2 756.7 312.3 756.4 310.4 754.3 309.4 753 309.6L733.4 312.6 721.5 298.2 760.1 292.4C762 292.1 763 290 762.7 288.1S761 285.1 759.1 285.4L716.7 291.8 707.1 279.6 721.7 243.1 738.2 240.7 763.7 273.1C765.2 274.2 767.2 274.5 769 273.6 769.5 272.9 770 271.5 769.8 270.2 769.7 269.6 769.6 269 768.9 268.4L745.8 239.5 764.1 236.8 776 251.2C776.8 252.4 778.8 252.7 780.6 251.8 781.7 250.4 782 248.4 781.2 247.2L771.7 235.7 792 232.6C793.3 232.4 794.9 230.3 794.7 229 794.4 227.1 792.2 225.5 791 225.7L770.7 228.7 776.5 215.5C776.4 214.9 776.3 214.3 776.2 213.6 776 212.4 775.2 211.2 774.5 210.7 772.5 210.3 770.7 211.2 769.6 212.7L763.1 229.8 744.7 232.6 758.4 198.2C759.4 196.1 758.4 194.3 757.1 193.8 755 192.9 753.2 193.8 752.1 195.2L737.2 233.7 720.7 236.2 696.1 205.5 701.7 191.1 744.1 184.8C746 184.5 747.1 183 746.8 181.1 746.5 179.2 745 178.2 743.1 178.5L704.5 184.2 711.7 167 731.3 164C732.6 163.9 734.2 161.7 733.9 159.8 733.6 157.9 731.5 156.9 730.2 157.1L714.4 159.4 722.4 139.5C722.3 138.9 722.3 138.9 722.3 138.2 722.1 137 721.2 135.8 720.5 135.2 718.5 134.9 716.7 135.8 716.3 137.2ZM713.1 237.3L715.6 240.8 714.1 244.3 702.4 273.8 701 277.3 697.2 277.9 666.1 282.5 662.3 283.1 660 280.2 640.1 255.3 637.7 252.4 639 248.4 650.9 219.4 652.2 215.3 656 214.8 687 210.1 690.8 209.6 693.3 213.1 713.1 237.3Z" fill="rgba(202, 235, 219, 1)"></path><path d="M293.3 330L251.2 358.8 232.9 355 247.2 345.3C249 344.7 249 342.6 248.3 340.8 247.3 339.8 245.1 339.3 244.1 340.3L224.2 353.3 206.2 350.1 218.3 336.4 242.2 334.8C242.2 334.8 242.8 334.6 242.8 334.6 244 334.2 244.8 332.6 245 331.2 244.4 329.3 243.3 328.3 241.3 328.4L224.1 329.6 236.3 315.9 287 311.8C287 311.8 287.9 312.2 287.9 312.2 289.1 311.8 289.9 310.2 290 308.7 290 306.7 288.2 305.3 286.4 306L242.1 309.1 256.4 292 276.3 290.5C276.3 290.5 276.3 290.5 276.9 290.3 278.1 289.9 279.1 288.8 279.3 287.4 278.6 285.6 277.4 284 275.4 284L262.2 285.2 272.8 272.7C274.4 271.5 273.8 269.7 272.7 268.7 271.5 267.1 269.5 267.1 268.1 268.9L257.3 280.8 257 268.1C256.3 266.3 255.1 264.6 253.3 265.3 251.3 265.3 250.3 266.3 250.3 268.4L251.7 288.2 237.2 304.7 233.8 259.9C234 258.4 232.1 257 230.1 257.1 228.9 257.5 227.3 258.7 227.3 260.7L231.4 311.5 219.2 325.2 218 308C218 306 216.3 305.2 214.3 305.2 212.9 305 211.5 306.9 211.3 308.3L213.4 332 201.5 346.3 195.4 328.7 205.6 307.6C206.4 305.9 205.8 304.1 204.2 303.3 203.1 302.3 200.7 303.2 199.9 304.8L192.4 320.3 186.3 302.7 209 256.9C209.8 255.3 209.2 253.5 207.6 252.7 205.9 251.9 204.1 252.5 203.3 254.2L183.4 294.3 176.3 273.7 184.9 255.8C185.7 254.2 185.1 252.4 183.5 251.6 181.8 250.8 180 251.4 179.2 253L173.1 264.7 167.9 249.5C167.2 247.7 165.6 246.9 163.8 247.6 162 248.2 161.2 249.8 161.8 251.6L167.1 266.8 155.7 261.2C154 260.4 152.2 261.1 151.4 262.7S151.3 266.1 152.9 266.9L170 275.2 177.4 296.4 137.4 277C135.8 276.3 134 276.9 133.2 278.5 132.4 280.1 133.1 282 134.7 282.7L180.3 304.8 186.4 322.4 170.9 314.9C169.3 314.1 167.5 314.7 166.7 316.4 165.9 318 166.5 319.8 168.1 320.6L189.3 330.8 195.2 347.8 177.8 344.3 164.1 324.7C163.1 323.7 160.9 323.1 159.9 324.1 158.3 325.4 158.1 326.8 158.7 328.6L168.4 342.8 151 339.4 122.1 297.3C120.9 295.7 119.5 295.5 117.6 296.1 116 297.4 116.1 299.4 116.5 300.6L141.6 337.9 119.7 333.3 108.8 317.5C108.2 315.7 106.2 315.7 104.3 316.3 103.3 317.3 102.8 319.6 104 321.2L111 331.6 95.2 329C93.6 328.2 92 329.4 91.4 331.7 91.2 333.1 92.4 334.7 93.8 334.9L109.9 338.1 98.8 345.3C97.2 346.6 97.3 348.6 98.3 349.6 98.9 351.4 100.3 351.6 101.5 351.2 102.1 351 102.1 351 102.7 350.7L118.6 339.8 140.5 344.4 103.8 369.4C102 370 102 372 102.6 373.8 103.7 374.8 105.1 375 106.3 374.6 106.9 374.4 106.9 374.4 106.9 374.4L149.8 345.9 167.3 349.3 153 359C151.4 360.3 151.3 361.7 151.9 363.5 152.9 364.5 154.5 365.3 155.7 364.9 156.4 364.7 156.4 364.7 157 364.4L176.6 350.8 194.1 354.3 182.5 367.8 158.8 369.9C156.8 369.9 155.4 371.7 155.2 373.2 155.9 375 157.1 376.6 158.9 376L176.1 374.7 164.7 388.8 113.2 392.5C111.8 392.3 110.4 394.2 110.2 395.6 110.8 397.4 112 399 114.1 399L158.4 395.8 143.8 412.4 124.6 413.6C122.6 413.7 121.2 415.5 121.8 417.3 121.6 418.7 122.8 420.3 124.9 420.3L138 419.1 127.4 431.6C126.4 432.6 126.5 434.7 127.7 436.3 128.5 436.6 129.9 436.8 131.1 436.4 131.1 436.4 131.7 436.2 132.3 436L142.9 423.5 144.1 436.7C143.9 438.1 145.7 439.5 147.2 439.7 147.8 439.4 147.8 439.4 147.8 439.4 149.6 438.8 150.4 437.2 150 436L148.7 416.8 163.1 399.6 166.5 444.5C167.1 446.3 168.1 447.3 170.1 447.3 170.1 447.3 170.7 447.1 170.7 447.1 171.9 446.6 172.9 445.6 172.9 443.6L169.5 392.6 181 379.1 182.2 396.3C182.9 398.1 184.1 399.7 185.9 399.1 186.1 399.7 186.7 399.5 186.7 399.5 187.9 399.1 188.7 397.4 188.9 396L186.8 372.4 199 358.7 204.9 375.6 194.6 396.8C193.8 398.4 194.7 400.8 196.3 401.6 197.7 401.8 199.5 401.2 200.5 400.1L207.8 384 213.9 401.6 191.8 447.2C191 448.8 191.6 450.6 193.3 451.4 194.9 452.2 196.7 451.6 197.5 450L216.8 410 224.2 431.2 215.9 448.3C215.1 449.9 215.7 451.8 217.4 452.5S220.8 452.7 221.6 451.1L227.1 439.7 232.4 454.8C233 456.6 234.6 457.4 236.4 456.8 238.2 456.1 239 454.5 238.4 452.7L233.2 437.6 245.2 442.9C246 443.3 246.8 443.7 247.4 443.5 248 443.3 249 442.2 249.4 441.4 250.2 439.8 249.6 438 247.9 437.2L230.2 429.1 222.9 407.9 263.4 427.1C264.2 427.5 265 427.9 265.6 427.7 266.2 427.4 267.2 426.4 267.6 425.6 268.4 424 267.8 422.2 266.2 421.4L219.9 399.5 213.8 381.9 229.5 390.1C230.3 390.4 231.6 390 232.2 389.8 232.8 389.6 233.4 389.4 233.8 388.6 234.6 387 233.7 384.5 232.3 384.3L210.9 373.5 205 356.6 223.1 359.8 236.1 379.6C237.1 380.6 238.7 381.4 239.9 381 240.5 380.8 240.5 380.8 240.3 380.2 242.2 379.6 242.7 377.3 241.5 375.7L231.8 361.5 249.9 364.7 278.3 407.7C279.4 408.7 280.8 408.8 282 408.4 282.6 408.2 282.6 408.2 282.6 408.2 284.2 407 285 405.3 283.7 403.7L258.6 366.4 280.5 371 291.4 386.8C292.7 388.5 294.1 388.6 295.3 388.2 295.3 388.2 295.9 388 295.9 388 297.5 386.8 297.5 384.8 297.1 383.5L289.2 372.7 305.3 375.9C305.9 375.7 306.5 375.5 307.1 375.3 307.7 375.1 308.7 374.1 309.1 373.3 309 371.2 308.4 369.4 306.4 369.5L290.4 366.2 301.4 359C303 357.8 303 355.7 302.6 354.5 301.3 352.9 299.3 353 297.5 353.6L281.6 364.5 259.9 360.5 296.7 335.6C298.3 334.3 298.8 332.1 297.8 331.1 296.6 329.5 295 328.7 293.3 330Z" fill="rgba(230, 218, 214, 1)"></path><path d="M534.5 607L531.7 587.6 542.8 591.6C544 592.1 545.6 591.5 546.6 590 546.7 588.4 546.1 586.7 544.5 586.6L530.8 581.2 527.9 566.2 556.6 577.5C558.2 577.6 559.9 577 560.4 575.9 561 573.9 560.3 572.3 558.8 572.1L527 559.7 523.4 536.6 547.2 549 539.9 523.2 561.7 531.4 567.4 565C567 565.4 567.4 565.8 567.7 566.3 568.4 567.1 569.6 567.6 570.8 567.4 572 567.1 573 565.6 573.1 564L567.9 533.6 582 539.5 584.5 554C584.4 554.8 584.8 555.3 585.1 555.7 585.5 556.1 586.6 556.6 587.8 556.4 589.1 556.1 590 554.6 589.7 553.4L588.1 541.7 606.6 548.3C608.1 549.3 609.4 548.2 610.3 546.7 610.8 545.6 610.2 543.9 608.3 543.3L590.3 536.3 599.4 528.9C600.7 527.8 600.5 525.8 599.8 525 598.7 523.7 597.2 523.5 595.9 524.6L584.1 534.1 570 528.3 593.5 509.2C594.8 508.1 594.9 506.5 593.9 505.2 593.2 504.4 591.2 503.8 589.9 504.8L563.9 526.1 542 517.9 564.2 503.4 538.6 496.8 556.8 482 588.3 493.9C590.2 494.5 591.5 493.5 592 492.3 592.5 491.2 591.9 489.5 590.4 488.6L561.6 478.1 573.3 468.5 587.5 473.6C589 474.5 590.7 473.9 591.3 471.9 591.8 470.8 591.2 469.1 589.3 468.6L578.5 464.3 593.7 451.9C595 450.8 595.2 449.3 594.1 448S591.5 446.5 590.2 447.6L575 459.9 573 448.6C572.8 446.6 571.3 445.6 570.1 445.9 568.1 446.1 567.1 447.6 567.7 449.2L569.8 464.2 558.1 473.7 553.6 443.4C553 441.8 551.5 440.8 550.3 441.1 548.3 441.3 547.3 442.8 547.9 444.4L553.3 477.6 535.1 492.5 533.8 466.1 515.1 484.9 511.5 461.8 537.6 440.6C538.9 439.5 538.7 437.5 538 436.6 536.9 435.3 535.3 435.2 534 436.2L510.2 455.7 507.8 440.3 519.5 430.8C520.8 429.7 520.9 428.1 519.9 426.8 519.2 426 517.2 425.4 515.9 426.4L506.8 433.8 503.6 414.8C503.4 412.8 501.9 411.9 500.3 412.5 499 412.8 497.7 413.8 498.4 415.5L501.1 434.9 490 430.9C488.9 430.4 487.2 431 486.7 432.2 486.2 433.3 486.5 434.6 486.8 435 487.2 435.4 487.5 435.9 488.3 435.9L502.1 441.3 504.9 456.3 476.2 445C474.6 444.9 473 445.5 472.5 446.7 472 447.8 472.2 449 472.9 449.9 473.3 450.3 473.3 450.3 474.1 450.4L505.9 462.8 509.5 485.9 485.7 473.5 493 499.3 471.1 491.1 465.4 457.5C465.1 456.3 464.1 455 462.1 455.1 460.8 455.4 459.9 456.9 459.7 458.5L465 488.9 450.8 483.1 448.4 468.5C448.5 466.9 447 465.9 445 466.1 443.8 466.4 442.8 467.9 442.7 469.5L444.7 480.8 426.3 474.2C424.8 473.2 423.5 474.3 422.5 475.8 422.4 476.6 422.7 477.8 423.1 478.2 423.4 478.7 423.8 479.1 424.6 479.2L442.6 486.2 433.4 493.6C432.1 494.7 432.3 496.7 433 497.6L433 497.6C434.1 498.9 435.7 499 437 498L448.7 488.4 462.8 494.2 439.4 513.3C438.1 514.4 437.9 516 439 517.3S441.6 518.7 442.9 517.7L469 496.5 490.8 504.7 468.7 519.1 494.2 525.7 476 540.6 444.6 528.6C442.7 528 441.4 529.1 440.8 530.2 440.3 531.3 441 533 442.5 533.9L470.8 544.8 459.5 554 445.3 549C443.8 548 442.1 548.6 441.5 550.6 441 551.7 441.7 553.4 443.2 554.3L454.3 558.2 439.1 570.6C437.8 571.7 437.6 573.3 438.7 574.6S441.3 576 442.6 575L457.8 562.6 459.9 573.9C459.8 574.7 460.1 575.2 460.5 575.6 461.2 576.5 462 576.5 462.8 576.6 464.8 576.4 465.7 574.9 465.1 573.3L463 558.3 474.8 548.8 479.2 579.1C479.6 579.5 479.9 580 480.3 580.4 481 581.3 481.8 581.4 482.6 581.4 484.6 581.2 485.5 579.7 484.9 578.1L479.5 544.9 497.8 530 499.1 556.4 517.7 537.7 521.3 560.7 495.3 581.9C494 583 494.2 585 494.9 585.9 495.9 587.2 497.5 587.3 498.8 586.3L522.2 567.2 525.1 582.2 513.4 591.7C512.1 592.8 511.9 594.4 513 595.7S515.6 597.1 516.9 596.1L526 588.7 529.2 607.7C529.2 608.5 529.5 608.9 529.9 609.4 530.2 609.8 531.4 610.3 532.6 610 533.8 609.8 535.1 608.7 534.5 607ZM503.9 543.8L503 522.2 482 516.9 500.4 504.8 494.5 484.3 513.8 493.9 528.9 478.7 529.9 500.3 550.8 505.6 532.9 517.3 538.3 538.2 519.5 528.3 503.9 543.8Z" fill="rgba(224, 202, 235, 1)"></path><path d="M1251.9 171L1253.4 191 1241 185.6C1239.8 184.9 1237.8 185.5 1236.6 187.1 1236.3 188.9 1236.9 190.8 1238.2 191.5L1254.3 199 1255.6 217.6 1223 202.2C1220.8 201.3 1218.9 201.9 1218.5 203.7 1217.3 205.3 1217.9 207.2 1220.1 208.1L1256.1 225 1257.8 241.8 1225.8 264.2 1212.2 258.1 1209.1 215.8C1208.7 215.3 1208.3 214.7 1208 214.2 1207.6 213.7 1206.3 213 1205.4 212.8 1203.1 212.9 1201.9 214.5 1202.5 216.5L1205.3 255.1 1188.8 247.1 1186.8 227.5C1187.3 227.1 1186.9 226.6 1186.6 226.1 1185.8 225 1184.6 224.3 1183.2 224.5 1181.7 224.7 1180.5 226.4 1180.2 228.2L1182 244.1 1161.2 234.4C1159.9 233.8 1158 234.3 1156.8 236 1156.5 237.7 1157 239.7 1158.3 240.4L1177.9 249.3 1166.9 257C1165.3 258.1 1165.3 260.5 1166.1 261.5 1167.2 263.1 1169.3 263.9 1170.9 262.8L1185 252.9 1201.6 260.9 1172.2 281.4C1170.6 282.5 1170.3 284.3 1171.4 285.9 1172.5 287.5 1174.3 287.8 1175.9 286.7L1208.4 263.9 1222.9 270.2 1226.1 309.3 1214 317.8 1177.1 300.7C1175.4 299.5 1173 300.4 1172.7 302.2 1171.5 303.8 1172.6 305.4 1174.2 306.6L1207.7 322.2 1192.5 332.8 1176 324.8C1174.8 324.2 1172.3 325.1 1171.6 326.4S1171.9 330.1 1173.5 331.3L1186.2 337.2 1167.9 350.1C1166.3 351.2 1166.4 353.5 1167.5 355 1168.2 356.1 1170.4 356.9 1171.9 355.8L1190.3 343 1191.9 357.5C1192.1 358.9 1193.2 360.5 1195.5 360.4 1196.9 360.2 1198.6 358.2 1198.4 356.8L1196.6 338.6 1211.8 327.9 1214.9 364.8C1215.5 366.7 1216.6 368.3 1218.9 368.3 1220.3 368 1222.1 366.1 1221.8 364.6L1218.1 323.5 1230.1 315.1 1265.8 331.5 1266.7 347.3 1234.2 370C1232.6 371.1 1232.3 372.9 1233.4 374.5 1234.5 376.1 1236.7 376.9 1238.3 375.8L1267.6 355.3 1269.5 373.5 1255.3 383.4C1253.7 384.5 1253.4 386.3 1254.5 387.9 1255.6 389.4 1257.4 389.8 1259 388.6L1270 380.9 1271.7 402.4C1271.9 403.8 1273.9 405.5 1275.3 405.3 1277.3 404.7 1278.8 403.6 1278.3 401.7L1276.7 379.4 1290.7 386C1292.5 386.3 1294.4 385.7 1295.1 384.5 1295.8 383.2 1295.6 381.8 1294.8 380.7 1294.8 380.7 1294.5 380.2 1293.6 380.1L1275.8 371.4 1274 353.2 1309.3 369C1310.9 370.2 1312.9 369.7 1313.7 367.5 1313.9 366.6 1314 365.7 1313.3 364.7 1312.9 364.2 1312.6 363.6 1312.2 363.1L1273.4 345.7 1272.4 330.8 1304.4 308.4 1319.6 315.7 1323.2 355.4C1323.2 357.7 1324.9 358.9 1326.8 358.3 1328.6 358.7 1329.8 357 1329.7 354.7L1326.4 318.8 1343.5 326.4 1345 344.1C1345.2 345.5 1346.8 346.7 1348.6 347 1350.5 346.4 1352.1 345.3 1351.5 343.4L1350.7 329.9 1369 338.2C1370.6 339.4 1372.2 338.3 1373.4 336.7 1373.5 335.8 1373.3 334.4 1372.6 333.3 1372.6 333.3 1372.2 332.8 1371.9 332.3L1352.3 323.3 1365.4 314.1C1366.5 313.4 1367.3 311.3 1366.2 309.7 1365.1 308.1 1362.8 308.2 1361.7 308.9L1345.5 320.3 1328.4 312.7 1360.4 290.3C1362 289.2 1361.9 286.9 1360.8 285.3S1358 283.4 1356.4 284.5L1321.3 309.1 1307.3 302.5 1304.1 263.3 1317.7 253.8 1355 271.4C1356.8 271.7 1358.7 271.2 1360 269.5 1360.1 268.6 1359.9 267.2 1359.2 266.2 1358.8 265.7 1358.4 265.1 1357.5 265L1324 249.4 1339.2 238.8 1356.2 246.4C1357.5 247 1359.4 246.5 1360.6 244.8 1361 243.1 1360.4 241.1 1359.1 240.4L1345.5 234.3 1362.3 222.6C1363.3 221.9 1363.8 219.2 1363 218.1 1361.9 216.6 1359.3 216.1 1358.2 216.8L1341.4 228.6 1340.8 214.2C1340.4 213.7 1340 213.2 1339.7 212.6 1338.9 211.6 1337.7 210.9 1336.8 210.8 1334.8 211.3 1333.6 213 1333.3 214.7L1335.2 233 1319.9 243.6 1316.8 206.8C1316.8 204.5 1315.1 203.3 1313.7 203.5 1311.4 203.5 1310.2 205.1 1309.9 206.9L1313.7 248 1300 257.6 1264.3 241.2 1262.9 225.7 1298 201.2C1299.6 200.1 1299.9 198.3 1298.8 196.7 1297.7 195.1 1295.9 194.8 1294.4 195.9L1262.4 218.3 1261.1 199.7 1277.3 188.3C1278.4 187.6 1278.8 184.9 1277.7 183.3 1276.6 181.8 1274.3 181.8 1273.3 182.5L1260.2 191.7 1258.5 170.3C1258.1 169.8 1258.1 169.8 1257.7 169.2 1257 168.2 1255.7 167.5 1254.8 167.3 1252.9 167.9 1251.7 169.5 1251.9 171ZM1293.7 262L1297.5 264 1297.8 267.7 1300.4 299.5 1300.7 303.2 1297.6 305.4 1271.9 323.4 1268.7 325.6 1265.3 324.1 1236.4 310.7 1233 309.2 1232.4 304.9 1230.1 273.7 1229.5 269.5 1232.6 267.3 1258.3 249.3 1261.4 247.1 1265.2 249.1 1293.7 262Z" fill="rgba(202, 235, 219, 1)"></path><path d="M956.3 325.8L949.7 336.4 945.4 329.2C945 328.3 943.8 327.9 942.6 328.3 941.8 329.1 941.4 330.3 941.8 331.1L947.2 340.8 941 350.7 930.2 330.9C929.4 329.6 928.2 329.2 927.4 330 926.2 330.4 925.8 331.6 926.5 332.8L938.5 354.6 933.2 363.7 908.8 363.3 904.1 355.2 918.1 332.6C918.2 332.2 918.2 331.8 918.2 331.4 918.2 331 917.8 330.2 917.4 329.8 916.2 329 915 329.4 914.6 330.6L901.8 351.1 896.4 341 902.6 330.3C903 330.4 903 330 903 329.6 903 328.8 902.6 327.9 901.8 327.5 901 327.1 899.8 327.5 899 328.3L894.1 337 887.1 324.5C886.7 323.6 885.5 323.2 884.3 323.6 883.5 324.4 883.1 325.6 883.5 326.4L890 338.1 881.6 338C880.4 337.9 879.6 339.1 879.6 339.9 879.6 341.1 880.4 342.3 881.6 342.4L892.4 342.6 897.8 352.7 875.4 352.2C874.2 352.2 873.4 353 873.3 354.2 873.3 355.4 874.1 356.2 875.3 356.2L900.1 356.7 905.1 365.2 892.3 386.2 883.1 386 870.8 363.8C870.4 362.5 868.8 362.1 868 362.9 866.8 363.3 866.7 364.5 867.1 365.7L878.3 385.9 866.7 385.7 861.3 375.6C860.9 374.8 859.4 374.3 858.5 374.7S857.3 376.7 857.7 377.9L861.9 385.6 847.9 385.3C846.7 385.3 845.9 386.5 845.9 387.7 845.9 388.5 846.7 389.7 847.9 389.7L861.9 390 857.3 397.9C856.9 398.7 856.9 399.9 858.1 400.7 858.8 401.1 860.5 400.8 860.9 400L866.7 390.1 878.3 390.3 866.3 410.1C865.9 411.3 865.8 412.5 867 413.3 867.8 413.7 869.4 413.3 869.8 412.5L883.1 390.4 892.3 390.6 904.2 412 898.9 420.3 874.1 419.8C872.9 419.8 872.1 420.6 872.1 421.8 872 423 872.8 424.2 874 424.2L896.4 424.6 890.6 434.5 879.8 434.3C878.6 434.3 877.8 435.1 877.8 436.3 877.8 437.5 878.5 438.3 879.7 438.3L888.1 438.5 881.1 450C880.7 450.8 881.1 452.4 881.9 452.8 883.1 453.2 884.3 453.2 884.7 452L892.1 440.2 896.8 448.7C897.5 449.5 898.7 449.9 899.5 449.5 900.3 449.1 900.8 448.3 900.8 447.5 900.8 447.5 900.8 447.1 900.4 446.7L894.6 435.8 900.4 425.9 912.4 446.9C912.8 448.2 914 448.6 915.2 447.8 915.6 447.4 916 447 916 446.2 916 445.8 916 445.4 916 445L902.9 422 907.8 414.1 932.2 414.5 937.2 423.8 924.4 445.2C923.6 446.4 924 447.6 925.2 448 926 448.8 927.2 448.4 928 447.2L939.6 427.9 945.4 438 939.6 447.5C939.2 448.3 939.5 449.5 940.3 450.3 941.5 450.7 942.7 450.7 943.1 449.5L947.7 442.4 953.9 453.3C954.3 454.5 955.5 454.6 956.7 454.2 957.1 453.8 957.5 453 957.5 452.2 957.5 452.2 957.5 451.8 957.5 451.4L950.9 439.7 960.9 439.9C961.7 439.9 962.9 439.1 963 437.9 963 436.7 961.8 435.9 961 435.9L948.6 435.6 942.8 425.5 967.2 426C968.4 426 969.2 424.8 969.2 423.6S968.5 421.6 967.3 421.6L940.5 421.1 935.8 412.6 948.6 391.6 959 391.8 971.4 414.5C972.2 415.3 973.4 415.7 974.6 415.3 975 414.9 975.4 414.1 975.4 413.3 975.4 412.9 975.5 412.5 975.1 412.1L963.8 391.9 975.4 392.1 981.2 402.2C981.6 403 982.8 403.5 984 403.1 984.8 402.3 985.3 401.1 984.9 400.3L980.2 392.2 993 392.5C993.8 392.5 995.1 391.3 995.1 390.5 995.1 389.3 993.9 388.1 993.1 388.1L980.3 387.8 985.3 380.3C985.3 379.9 985.3 379.5 985.3 379.1 985.3 378.3 984.9 377.5 984.5 377.1 983.3 376.7 982.1 377.1 981.3 377.8L975.5 387.7 963.9 387.5 975.9 367.7C976.7 366.5 976.3 365.3 975.5 364.9 974.4 364.1 973.2 364.5 972.3 365.3L959.1 387.4 948.7 387.2 936.7 365.8 941.7 357.5 968.5 358C969.7 358 970.5 357.2 970.5 356 970.5 354.8 969.8 354 968.6 354L944.2 353.5 950.3 343.6 962.7 343.9C963.5 343.9 964.8 342.7 964.8 341.5 964.8 340.3 963.6 339.5 962.8 339.5L952.8 339.3 959.8 327.8C959.9 327.4 959.9 327.4 959.9 327 959.9 326.2 959.5 325.4 959.1 325 957.9 324.6 956.7 325 956.3 325.8ZM943.9 387.1L945.1 389.6 943.8 391.5 933.5 408.5 932.3 410.5 929.9 410.5 910.3 410.1 907.9 410.1 906.7 408 897.1 390.7 895.9 388.6 897.1 386.3 907.4 369.6 908.7 367.3 911.1 367.3 930.7 367.7 933.1 367.7 934.2 370.1 943.9 387.1Z" fill="rgba(230, 218, 214, 1)"></path><path d="M696.6 564.7L703.8 557.6 705.7 564.1C705.9 564.8 706.7 565.4 707.7 565.3 708.5 564.8 709.1 564 708.9 563.3L706.6 554.7 713.3 548.2 717.9 565.7C718.3 566.8 719.1 567.3 719.9 566.9 720.9 566.8 721.5 566 721.1 564.9L716 545.6 721.9 539.6 740.7 544.6 742.8 551.8 727.6 566.6C727.5 566.9 727.4 567.2 727.3 567.5 727.2 567.9 727.4 568.6 727.6 568.9 728.4 569.8 729.4 569.7 729.9 568.9L743.8 555.4 746.1 564.3 739.2 571.4C738.9 571.3 738.8 571.6 738.8 571.9 738.6 572.5 738.7 573.2 739.3 573.7 739.8 574.2 740.8 574.1 741.6 573.7L747.1 567.9 750.1 578.9C750.3 579.6 751.1 580.2 752.1 580.1 752.9 579.7 753.5 578.8 753.3 578.1L750.5 567.7 757 569.5C757.9 569.7 758.7 569 758.9 568.3 759.2 567.4 758.8 566.3 757.9 566.1L749.5 563.9 747.2 555 764.6 559.6C765.5 559.8 766.3 559.4 766.5 558.5 766.8 557.5 766.3 556.7 765.4 556.5L746.2 551.4 743.9 543.8 757.9 530 765 531.9 770.4 551.5C770.4 552.5 771.6 553.2 772.4 552.7 773.4 552.7 773.6 551.7 773.5 550.7L768.7 532.9 777.7 535.3 779.9 544.1C780.1 544.8 781.2 545.5 781.9 545.3S783.3 544 783.2 543L781.4 536.3 792.2 539.1C793.1 539.4 794 538.6 794.2 537.7 794.4 537.1 794 536 793.1 535.7L782.3 532.8 787.3 527.6C787.8 527 788.1 526.1 787.3 525.2 786.8 524.8 785.4 524.7 785 525.3L778.6 531.9 769.6 529.5 782.7 516.4C783.3 515.6 783.5 514.6 782.7 513.8 782.2 513.3 780.9 513.3 780.4 513.8L765.9 528.5 758.8 526.6 753.6 507.6 759.3 502.2 778.5 507.3C779.4 507.6 780.2 507.1 780.4 506.2 780.7 505.3 780.3 504.2 779.4 503.9L762.1 499.3 768.5 492.7 776.8 495C777.7 495.2 778.5 494.8 778.8 493.8 779 492.9 778.6 492.1 777.6 491.9L771.2 490.1 778.8 482.6C779.3 482 779.3 480.7 778.8 480.2 777.9 479.7 777 479.4 776.4 480.3L768.4 488.1 766.4 480.6C766 479.8 765.1 479.3 764.4 479.4 763.7 479.5 763.2 480.1 763.1 480.7 763.1 480.7 763 481 763.2 481.4L765.6 491 759.2 497.6 753.9 478.9C753.9 477.9 753 477.4 751.9 477.7 751.5 478 751.2 478.2 751 478.8 750.9 479.1 750.8 479.4 750.7 479.7L756.6 500.2 751.2 505.4 732.3 500.3 730.2 492.1 744.3 478C745.1 477.2 745.1 476.2 744.2 475.7 743.8 474.9 742.7 474.9 741.9 475.7L729.2 488.6 726.6 479.6 732.9 473.3C733.4 472.8 733.3 471.8 732.9 471 732 470.4 731.1 470.2 730.5 471L725.7 475.7 722.9 466C722.9 465 721.9 464.8 720.9 464.8 720.5 465.1 720.1 465.6 719.9 466.2 719.9 466.2 719.8 466.5 719.7 466.8L722.6 477.2 714.9 475.1C714.3 475 713.2 475.3 712.9 476.3 712.7 477.2 713.4 478.1 714.1 478.2L723.6 480.8 726.2 489.7 707.4 484.7C706.4 484.5 705.6 485.2 705.3 486.2S705.5 487.9 706.4 488.1L727.2 493.6 729.1 501.1 715.2 515 707.2 512.8 701.9 492.9C701.4 492.1 700.6 491.5 699.6 491.6 699.2 491.8 698.7 492.3 698.5 493 698.5 493.3 698.4 493.6 698.6 494L703.4 511.8 694.5 509.4 691.9 500.5C691.8 499.8 690.9 499.2 689.9 499.3 689.1 499.7 688.6 500.6 688.7 501.3L690.8 508.4 680.9 505.8C680.2 505.6 679.1 506.3 678.9 506.9 678.7 507.9 679.3 509 680 509.2L689.9 511.8 684.6 516.7C684.5 517 684.4 517.4 684.3 517.7 684.2 518.3 684.3 519 684.5 519.4 685.4 519.9 686.4 519.9 687.2 519.4L693.6 512.8 702.5 515.2 689.4 528.3C688.6 529.1 688.6 530.1 689.2 530.5 689.9 531.4 690.9 531.3 691.7 530.9L706.2 516.2 714.3 518.4 719.5 537.3 714.1 542.8 693.3 537.3C692.4 537 691.6 537.5 691.4 538.4 691.1 539.3 691.6 540.1 692.5 540.4L711.4 545.4 704.7 551.9 695.1 549.3C694.5 549.2 693.3 549.9 693.1 550.8 692.8 551.7 693.6 552.6 694.2 552.7L701.9 554.8 694.3 562.4C694.2 562.7 694.2 562.7 694.1 563 693.9 563.6 694.1 564.3 694.3 564.7 695.2 565.3 696.2 565.2 696.6 564.7ZM718 519.3L717.6 517.2 718.9 515.9 730.2 504.7 731.5 503.4 733.4 503.9 748.5 507.9 750.4 508.4 750.9 510.2 755.1 525.6 755.6 527.4 754.2 529 743 539.9 741.6 541.5 739.7 541 724.5 537 722.7 536.5 722.3 534.4 718 519.3Z" fill="rgba(244, 245, 246, 1)"></path><path d="M1360.4 426.4L1371.7 464.4 1366.8 474.2 1342.3 475 1336.2 465.6 1345.5 426.9C1345.5 426.4 1345.5 426.4 1345.5 425.9 1345.4 425 1344.9 424 1343.5 423.6 1342 423.6 1341.1 424.2 1340.7 425.6L1332.7 459.5 1323.5 444.9 1326.9 429.9C1326.9 429.9 1326.9 429.4 1326.9 429.4 1326.8 428.5 1326.3 427.5 1324.9 427.1 1323.9 426.7 1322.5 427.7 1322 429.1L1319.5 438.8 1312.9 428C1312.4 427 1310.9 426.6 1309.5 427.1S1308.1 429.6 1308.7 431L1315.2 441.4 1305.6 439.3C1304.1 438.9 1302.7 439.9 1302.3 441.3 1302.3 442.3 1302.8 443.7 1304.3 444.1L1319.3 447.5 1328.4 462.5 1294.6 454.5C1293.1 454.1 1291.7 455.1 1291.2 456.1 1291.3 457.5 1291.8 459 1293.3 459.4L1332 468.2 1338.1 478.1 1326.8 499.1 1315.3 499.5 1286 472.6C1285 471.7 1283.6 471.7 1282.7 472.7S1281.8 475.1 1282.8 476.1L1308.6 499.7 1290.8 500.3 1279.9 490.1C1278.9 489.2 1277.5 489.2 1276.1 490.2S1275.2 492.7 1276.2 493.6L1284.1 500.5 1271.1 501C1269.7 501 1268.8 502.5 1268.8 503.9 1268.9 505.4 1269.9 506.3 1271.3 506.2L1284.3 505.8 1277.3 513.2C1275.9 514.2 1276 515.7 1277.4 516.6 1278.4 517.5 1279.9 517.5 1280.8 516.5L1291 505.6 1308.7 505 1284.6 530.3C1283.7 531.3 1283.8 533.2 1284.8 534.1S1287.2 535 1288.1 534L1315.5 504.7 1327 504.4 1339.7 525.1 1334.2 534.9 1296.2 546.2C1294.8 546.7 1294.4 548.2 1294.4 549.6 1294.9 551.1 1296.4 551.5 1297.8 551.4L1331.1 541.2 1323 556.4 1308.2 560.7C1306.8 561.2 1306.4 562.7 1306.4 564.1 1306.9 565.1 1308.4 566 1309.8 565.5L1319.3 562.7 1313.5 574C1313 575 1313.6 576.4 1314.5 577.3 1316 577.7 1317.4 577.2 1317.9 576.2L1323.7 565 1327 575C1327.5 575.9 1328.9 576.8 1329.9 576.3 1331.3 576.3 1331.8 575.3 1331.7 573.8 1331.7 573.8 1331.7 573.4 1331.7 573.4L1327.4 558.6 1335.5 543.5 1345.7 576.7C1346.3 578.2 1347.3 579.1 1348.7 578.6 1350.1 578 1350.6 577 1350.5 576.1 1350.5 575.6 1350.5 575.6 1350.5 575.6L1338.6 537.1 1344.1 527.3 1368.5 526.5 1374.1 535.9 1365.4 575.1C1364.9 576.1 1365.9 577.5 1366.9 577.9 1368.4 578.4 1369.8 577.4 1370.2 575.9L1378.2 542 1387.3 556.6 1384 571.6C1383.6 573.1 1384.1 574.5 1385.5 574.4 1387 574.9 1388.4 573.9 1388.8 572.9L1390.9 562.7 1397.5 573.5C1398.5 574.5 1400 574.9 1401.4 574.4 1401.8 573.9 1402.3 572.9 1402.3 571.9 1402.2 571.5 1402.2 571.5 1401.7 571L1395.1 560.2 1405.3 562.2C1406.7 562.7 1407.7 561.7 1408.1 560.7 1408.1 560.2 1408.1 560.2 1408.1 559.7 1408.1 558.8 1407.5 557.8 1406.6 557.4L1391.6 554.1 1382.4 539.5 1416.3 547.5C1417.8 547.4 1419.2 546.9 1419.1 545.4 1419.6 544.9 1419.6 544.9 1419.6 544.5 1419.5 543.5 1418.6 542.6 1417.6 542.1L1378.4 533.4 1372.8 523.9 1384.1 502.4 1395.1 502.1 1424.4 529.4C1425.3 530.3 1427.3 530.3 1428.2 529.3S1429.1 526.4 1428.1 525.4L1402.3 501.8 1419.6 501.2 1431 511.4C1431.9 512.3 1433.4 512.3 1434.3 511.3 1435.2 510.3 1435.2 508.9 1434.2 508L1426.8 501 1439.7 500.6C1440.7 500.5 1442.1 499.5 1442 498.1 1442 496.6 1440.5 495.3 1439.5 495.3L1426.6 495.7 1433.5 488.3C1434 487.8 1434.5 487.3 1434.4 486.8 1434.4 485.9 1433.9 485.4 1433.4 484.9 1432.4 484 1431 484 1430.1 485L1419.4 496 1402.1 496.5 1426.2 471.2C1426.7 470.7 1426.7 470.3 1426.7 469.3 1426.6 468.8 1426.6 468.3 1426.1 467.9 1425.1 467 1423.2 467 1422.3 468L1394.9 496.8 1383.9 497.2 1371.2 476.9 1376.1 466.7 1414.7 455.3C1415.6 454.8 1416.5 453.8 1416.5 452.8 1416.5 452.4 1416.5 452.4 1416 452.4 1415.9 450.9 1414.5 450 1413.1 450.6L1379.8 460.8 1387.9 445.2 1402.6 440.8C1403.6 440.3 1404 439.3 1404 438.4 1404 438.4 1404 437.9 1404 437.9 1403.9 436.5 1402.5 435.5 1401 436.1L1391.1 439.3 1396.9 428C1397.4 427.5 1397.4 427.1 1397.4 426.6 1397.3 425.6 1396.8 424.7 1396.3 424.7 1394.9 423.8 1393.4 424.3 1392.5 425.3L1386.6 436.6 1383.9 427C1383.4 425.6 1381.9 424.7 1380.5 425.2 1379.6 425.7 1378.6 427.2 1379.2 428.2L1383.5 442.9 1375.4 458.1 1365.1 424.8C1364.6 423.4 1363.1 422.9 1361.7 423 1360.8 423.5 1359.8 425 1360.4 426.4ZM1345.4 480.2L1364.1 479.6 1367 479.5 1368.5 481.8 1378.1 497.4 1379.7 500.2 1378.3 502.6 1369.7 518.8 1368.4 521.2 1365.5 521.3 1346.8 521.9 1343.9 522 1342.4 519.7 1332.7 504.2 1331.2 501.8 1332.6 498.9 1341.1 482.8 1342.5 480.3 1345.4 480.2Z" fill="rgba(230, 218, 214, 1)"></path></g><defs><mask id="SvgjsMask1014"><rect width="1440" height="560" fill="#ffffff"></rect></mask><filter id="SvgjsFilter1015"><feGaussianBlur stdDeviation="1"></feGaussianBlur></filter></defs></svg>